<?xml version="1.0" encoding="UTF-8"?>
<!-- Generator: Adobe Illustrator 21.0.0, SVG Export Plug-In . SVG Version: 6.00 Build 0)  -->
<svg version="1.1" id="Layer_1" xmlns="http://www.w3.org/2000/svg" xmlns:xlink="http://www.w3.org/1999/xlink" x="0px" y="0px" viewBox="0 0 183 100" style="enable-background:new 0 0 183 100;" xml:space="preserve">
<style type="text/css">
	.st0{fill:#EEA20B;}
	.st1{fill:#FCB912;}
	.st2{fill:#50C050;}
	.st3{fill:#40A040;}
	.st4{fill:#94EA94;}
	.st5{opacity:0.25;enable-background:new    ;}
	.st6{opacity:0.15;enable-background:new    ;}
	.st7{fill:#FFE036;}
</style>
<rect x="145" y="65.7" class="st0" width="22.4" height="24.3"/>
<path class="st1" d="M169.4,88.7h-40.7c-0.2,0-0.3,0.1-0.3,0.3v6.7c0,0.2,0.1,0.3,0.3,0.3h40.7c0.2,0,0.3-0.1,0.3-0.3V89  C169.7,88.8,169.5,88.7,169.4,88.7z"/>
<path class="st1" d="M169.4,79.9h-40.7c-0.2,0-0.3,0.1-0.3,0.3v6.7c0,0.2,0.1,0.3,0.3,0.3h40.7c0.2,0,0.3-0.1,0.3-0.3v-6.7  C169.7,80,169.5,79.9,169.4,79.9z"/>
<path class="st1" d="M169.4,71h-40.7c-0.2,0-0.3,0.1-0.3,0.3v6.7c0,0.2,0.1,0.3,0.3,0.3h40.7c0.2,0,0.3-0.1,0.3-0.3v-6.7  C169.7,71.1,169.5,71,169.4,71z"/>
<path class="st1" d="M169.4,62.1h-40.7c-0.2,0-0.3,0.1-0.3,0.3v6.7c0,0.2,0.1,0.3,0.3,0.3h40.7c0.2,0,0.3-0.1,0.3-0.3v-6.7  C169.7,62.3,169.5,62.1,169.4,62.1z"/>
<g>
	<g>
		<g>
			<g>
				
					<rect x="52.5" y="-13.7" transform="matrix(0.2066 -0.9784 0.9784 0.2066 21.7947 122.5368)" class="st2" width="67.9" height="123.1"/>
			</g>
			<path class="st3" d="M135.9,77.7l7.8-37.1c-4.4-0.9-7.3-5.3-6.4-9.7L46.8,11.7c-0.9,4.4-5.3,7.3-9.7,6.4l-7.9,37     c4.4,0.9,7.3,5.3,6.4,9.7L126.2,84C127,79.6,131.4,76.7,135.9,77.7z"/>
			<g>
				<path class="st4" d="M87.1,49.7l-1.4,6.1c0.9,0.1,1.5,0,1.9-0.2c0.8-0.4,1.2-1.2,1.5-2.3c0.2-0.9,0.1-1.7-0.4-2.4      C88.4,50.7,87.7,50.3,87.1,49.7z"/>
				<path class="st4" d="M85.5,39.1c-0.5,0.4-0.9,1-1,1.8c-0.2,0.9,0,1.6,0.5,2.4c0.3,0.3,0.8,0.8,1.6,1.1l1.1-5.6      C86.8,38.7,86,38.9,85.5,39.1z"/>
				<path class="st4" d="M90.5,28.5c-10.6-2.3-21,4.7-23.3,15.3C65,54.4,71.9,64.9,82.5,67.1c10.6,2.3,21.1-4.7,23.3-15.3      S101.2,30.9,90.5,28.5z M89.6,59.1c-1.3,0.4-2.8,0.6-4.5,0.3l-0.8,3.2l-1.6-0.3l0.6-3.1c-2.1-0.6-3.6-1.5-4.4-2.4      c-1.5-1.6-2.1-3.9-1.4-6.7l4.3,0.9c-0.1,1.4-0.1,2.3,0.1,2.9c0.2,0.8,1,1.4,2.2,1.8l1.4-6.7l-1.3-0.6c-1.8-1.1-3.1-2.2-3.8-3.4      c-0.6-1.3-0.6-2.6-0.4-4.1c0.2-1,0.5-1.8,1.1-2.6c0.5-0.6,1.1-1.3,1.7-1.8c1-0.6,1.9-1,2.8-1.1c0.6,0,1.4,0,2.6,0.1l0.4-2.2      l1.6,0.3l-0.4,2.2c1.7,0.5,2.9,1.2,3.8,2.2c1.6,1.5,2.1,3.6,1.6,6.2L91,43.2c0.1-1,0.2-1.7,0-2.2c-0.2-0.9-1-1.4-1.8-1.7      l-1.3,6.1c2.4,1.3,3.9,2.6,4.5,3.4c1.2,1.4,1.6,3.1,1.1,5.2C93.1,56.5,91.7,58.2,89.6,59.1z"/>
			</g>
		</g>
		<g>
			<ellipse transform="matrix(0.2023 -0.9793 0.9793 0.2023 20.7354 46.744)" class="st3" cx="39.1" cy="10.6" rx="2.7" ry="2.7"/>
			
				<ellipse transform="matrix(0.2023 -0.9793 0.9793 0.2023 83.8718 168.1737)" class="st3" cx="145.2" cy="32.6" rx="2.7" ry="2.7"/>
			
				<ellipse transform="matrix(0.2023 -0.9793 0.9793 0.2023 -39.8873 78.3413)" class="st3" cx="28.1" cy="63.7" rx="2.7" ry="2.7"/>
			
				<ellipse transform="matrix(0.2023 -0.9793 0.9793 0.2023 23.186 199.6496)" class="st3" cx="134.1" cy="85.6" rx="2.7" ry="2.7"/>
		</g>
		<ellipse transform="matrix(0.2023 -0.9793 0.9793 0.2023 0.2558 81.7959)" class="st2" cx="50.3" cy="40.7" rx="8.7" ry="8.7"/>
		
			<ellipse transform="matrix(0.2023 -0.9793 0.9793 0.2023 43.8118 165.4217)" class="st2" cx="123.4" cy="55.8" rx="8.7" ry="8.7"/>
	</g>
	
		<rect x="52.5" y="-13.7" transform="matrix(0.2066 -0.9784 0.9784 0.2066 21.7947 122.5368)" class="st5" width="67.9" height="123.1"/>
</g>
<g>
	<g>
		<g>
			<g>
				
					<rect x="47.9" y="-8" transform="matrix(0.1032 -0.9947 0.9947 0.1032 20.1191 129.5116)" class="st2" width="67.9" height="123.1"/>
			</g>
			<path class="st3" d="M134.3,78.1l3.8-37.7c-4.5-0.4-7.8-4.5-7.4-9.1l-92-9.4c-0.4,4.5-4.5,7.8-9.1,7.4L25.7,67     c4.5,0.4,7.8,4.5,7.4,9.1l92.2,9.5C125.6,80.9,129.6,77.7,134.3,78.1z"/>
			<g>
				<path class="st4" d="M82.7,55.5L82,61.7c0.9,0,1.5-0.1,1.8-0.4c0.8-0.5,1.1-1.3,1.3-2.4c0.1-1-0.1-1.7-0.6-2.3      C84.2,56.3,83.5,55.9,82.7,55.5z"/>
				<path class="st4" d="M80,45.1c-0.4,0.4-0.8,1.1-0.8,1.8c-0.1,1,0.1,1.6,0.8,2.3c0.3,0.3,0.9,0.6,1.7,1l0.5-5.6      C81.2,44.5,80.5,44.8,80,45.1z"/>
				<path class="st4" d="M84,34c-10.7-1.2-20.4,6.8-21.5,17.7c-1.2,10.7,6.8,20.5,17.7,21.5c10.7,1.2,20.5-6.8,21.5-17.7      S94.8,35.2,84,34z M86.2,64.5c-1.3,0.5-2.7,1-4.5,0.8l-0.4,3.2l-1.6-0.2l0.3-3.2c-2.1-0.4-3.7-1.1-4.7-1.9      c-1.7-1.4-2.5-3.6-2.1-6.6l4.3,0.4c0,1.4,0.1,2.3,0.4,2.8c0.3,0.8,1.1,1.3,2.4,1.6l0.8-6.9l-1.3-0.5c-1.9-0.9-3.4-1.7-4.1-3      c-0.8-1.2-1-2.5-0.9-4.1c0.1-1,0.3-1.8,0.9-2.7c0.4-0.8,1-1.4,1.6-1.9c0.9-0.8,1.7-1.2,2.7-1.3c0.6,0,1.4-0.1,2.6-0.1l0.2-2.2      l1.6,0.2l-0.2,2.2c1.7,0.3,3,0.9,4,1.7c1.7,1.3,2.5,3.4,2.3,6l-4.2-0.4c0-1,0-1.7-0.2-2.2c-0.3-0.9-1.1-1.3-2.1-1.5l-0.6,6.2      c2.5,1.1,4.1,2.2,4.9,2.9c1.3,1.3,1.9,3,1.6,5C89.6,61.5,88.3,63.4,86.2,64.5z"/>
			</g>
		</g>
		<g>
			
				<ellipse transform="matrix(9.885218e-02 -0.9951 0.9951 9.885218e-02 6.4127 50.3244)" class="st3" cx="31" cy="21.6" rx="2.7" ry="2.7"/>
			
				<ellipse transform="matrix(9.885218e-02 -0.9951 0.9951 9.885218e-02 92.7783 167.1074)" class="st3" cx="138.7" cy="32.3" rx="2.7" ry="2.7"/>
			
				<ellipse transform="matrix(9.885218e-02 -0.9951 0.9951 9.885218e-02 -52.139 93.5353)" class="st3" cx="25.6" cy="75.6" rx="2.7" ry="2.7"/>
			
				<ellipse transform="matrix(9.885218e-02 -0.9951 0.9951 9.885218e-02 34.3133 210.4352)" class="st3" cx="133.3" cy="86.3" rx="2.7" ry="2.7"/>
		</g>
		
			<ellipse transform="matrix(9.885218e-02 -0.9951 0.9951 9.885218e-02 -9.2472 90.4002)" class="st2" cx="45.3" cy="50.3" rx="8.7" ry="8.7"/>
		
			<ellipse transform="matrix(9.885218e-02 -0.9951 0.9951 9.885218e-02 50.3136 171.0725)" class="st2" cx="119.6" cy="57.8" rx="8.7" ry="8.7"/>
	</g>
	
		<rect x="47.9" y="-8" transform="matrix(0.1032 -0.9947 0.9947 0.1032 20.119 129.5114)" class="st6" width="67.9" height="123.1"/>
</g>
<g>
	<g>
		<g>
			
				<rect x="16.5" y="28.1" transform="matrix(1 -1.245350e-03 1.245350e-03 1 -7.718940e-02 9.723021e-02)" class="st2" width="123.1" height="67.9"/>
		</g>
		<path class="st3" d="M132.7,80.9L132.6,43c-4.5,0.1-8.2-3.7-8.2-8.2L31.9,35c0.1,4.5-3.7,8.2-8.2,8.2v37.9    c4.5-0.1,8.2,3.7,8.2,8.2l92.6-0.1C124.3,84.7,128,80.9,132.7,80.9z"/>
		<g>
			<path class="st4" d="M79.1,63.8L79,70c0.9,0,1.5-0.2,1.8-0.5c0.6-0.5,1-1.4,1.1-2.5c0-1-0.3-1.7-1-2.2     C80.5,64.5,79.8,64.1,79.1,63.8z"/>
			<path class="st4" d="M75.3,53.7c-0.4,0.5-0.6,1.2-0.6,1.9c0,1,0.3,1.6,1,2.3c0.3,0.2,1,0.5,1.8,0.8L77.3,53     C76.5,53.1,75.7,53.4,75.3,53.7z"/>
			<path class="st4" d="M78.1,42.4c-10.8-0.1-19.6,9-19.6,19.8C58.4,73,67.4,81.9,78.3,81.8C89.1,81.9,98,72.9,97.9,62     C97.8,51.1,88.9,42.4,78.1,42.4z M83.4,72.4c-1.2,0.8-2.6,1.2-4.4,1.3L78.8,77h-1.6v-3.2c-2.2-0.2-3.8-0.6-4.8-1.4     c-1.8-1.3-2.8-3.4-2.7-6.3h4.3c0.1,1.4,0.3,2.2,0.6,2.8c0.4,0.8,1.2,1.1,2.5,1.4v-6.9L75.8,63c-2.1-0.6-3.5-1.4-4.3-2.5     s-1.2-2.4-1.3-3.9c0-1,0.1-1.9,0.5-2.8c0.4-0.8,0.8-1.5,1.4-2.2c0.8-0.9,1.6-1.3,2.6-1.6c0.6-0.1,1.4-0.3,2.6-0.4v-2.2H79v2.2     c1.7,0.2,3.1,0.5,4.1,1.3c1.8,1.2,2.8,3.1,2.9,5.6h-4.3c-0.1-1-0.2-1.7-0.4-2.2c-0.4-0.9-1.2-1.1-2.2-1.3v6.3     c2.6,0.9,4.3,1.7,5.1,2.4c1.4,1.1,2.2,2.8,2.2,4.9C86.4,69.1,85.3,71.1,83.4,72.4z"/>
		</g>
	</g>
	<g>
		<ellipse transform="matrix(1 -5.641447e-03 5.641447e-03 1 -0.2002 0.1362)" class="st3" cx="24" cy="35.6" rx="2.7" ry="2.7"/>
		
			<ellipse transform="matrix(1 -5.641447e-03 5.641447e-03 1 -0.1948 0.7471)" class="st3" cx="132.3" cy="34.9" rx="2.7" ry="2.7"/>
		<ellipse transform="matrix(1 -5.641447e-03 5.641447e-03 1 -0.5056 0.1383)" class="st3" cx="24.3" cy="89.7" rx="2.7" ry="2.7"/>
		<ellipse transform="matrix(1 -5.641447e-03 5.641447e-03 1 -0.5003 0.7492)" class="st3" cx="132.5" cy="89" rx="2.7" ry="2.7"/>
	</g>
	<ellipse transform="matrix(1 -5.641447e-03 5.641447e-03 1 -0.3527 0.2338)" class="st2" cx="41.3" cy="62.6" rx="8.7" ry="8.7"/>
	<ellipse transform="matrix(1 -5.641447e-03 5.641447e-03 1 -0.349 0.6553)" class="st2" cx="116" cy="62.2" rx="8.7" ry="8.7"/>
</g>
<g>
	<circle class="st7" cx="140" cy="78.4" r="19.3"/>
	<circle class="st1" cx="140" cy="78.4" r="15"/>
	<path class="st7" d="M144,78.1c-0.5-0.4-1.7-1-3.5-1.6v-4.2c0.7,0.1,1.2,0.3,1.5,0.9c0.2,0.3,0.3,0.8,0.3,1.5h2.9   c-0.1-1.7-0.7-3.1-2-3.9c-0.7-0.5-1.6-0.8-2.8-0.9v-1.5h-1.1v1.5c-0.8,0.1-1.3,0.2-1.7,0.3c-0.6,0.2-1.2,0.5-1.7,1.1   c-0.3,0.4-0.7,0.9-0.9,1.5c-0.3,0.6-0.3,1.2-0.3,1.9c0.1,1,0.3,1.9,0.9,2.7c0.6,0.8,1.5,1.3,3,1.7l0.9,0.3v4.7   c-0.9-0.2-1.4-0.4-1.7-0.9c-0.3-0.4-0.3-0.9-0.5-1.9h-3c0,2.1,0.6,3.4,1.9,4.3c0.7,0.5,1.8,0.9,3.3,0.9v2.1h1.1l0.1-2.2   c1.2,0,2.1-0.3,3-0.9c1.3-0.9,2.1-2.2,2.1-4C145.5,80,145,78.8,144,78.1z M138.2,75.6c-0.5-0.4-0.7-0.9-0.7-1.5   c0-0.5,0.1-0.9,0.4-1.4c0.3-0.3,0.8-0.5,1.5-0.5l0.1,3.9C138.9,76,138.4,75.8,138.2,75.6z M141.7,83.4c-0.3,0.3-0.7,0.3-1.2,0.4   l0.1-4.2c0.5,0.2,1,0.4,1.3,0.6c0.4,0.3,0.6,0.9,0.6,1.5C142.3,82.5,142.1,83,141.7,83.4z"/>
</g>
</svg>